<?xml version="1.0" encoding="utf-8"?>
<!-- Svg Vector Icons : http://www.onlinewebfonts.com/icon -->
<!DOCTYPE svg PUBLIC "-//W3C//DTD SVG 1.1//EN" "http://www.w3.org/Graphics/SVG/1.1/DTD/svg11.dtd">
<svg version="1.1" xmlns="http://www.w3.org/2000/svg" xmlns:xlink="http://www.w3.org/1999/xlink" x="0px" y="0px" viewBox="0 0 1000 1000" enable-background="new 0 0 1000 1000" xml:space="preserve">
<metadata> Svg Vector Icons : http://www.onlinewebfonts.com/icon </metadata>
<g><path d="M621.2,691.1c-24.2-3.8-24.7-70.3-24.7-70.3s71.1-70.3,86.5-164.9c41.7,0,67.4-100.6,25.7-135.9c1.7-37.2,53.5-292.4-208.8-292.4S289.5,282.6,291.2,319.9c-41.7,35.4-15.9,135.9,25.7,135.9c15.5,94.6,86.5,164.9,86.5,164.9s-0.6,66.5-24.7,70.3C300.9,703.5,10,831.8,10,972.5h980C990,831.8,699.1,703.5,621.2,691.1L621.2,691.1z"/></g>
</svg>